<mxfile host="app.diagrams.net" modified="2021-12-01T17:47:32.411Z" agent="5.0 (Windows NT 10.0; Win64; x64) AppleWebKit/537.36 (KHTML, like Gecko) Chrome/96.0.4664.45 Safari/537.36" etag="PZRZ7VIFoQIiyxeLNG3o" version="15.8.8" type="github">
  <diagram id="C5RBs43oDa-KdzZeNtuy" name="Page-1">
    <mxGraphModel dx="868" dy="394" grid="1" gridSize="10" guides="1" tooltips="1" connect="1" arrows="1" fold="1" page="1" pageScale="1" pageWidth="827" pageHeight="1169" math="0" shadow="0">
      <root>
        <mxCell id="WIyWlLk6GJQsqaUBKTNV-0" />
        <mxCell id="WIyWlLk6GJQsqaUBKTNV-1" parent="WIyWlLk6GJQsqaUBKTNV-0" />
        <mxCell id="XTSFsIL2t6BZDen2kyMJ-3" value="" style="edgeStyle=orthogonalEdgeStyle;rounded=0;orthogonalLoop=1;jettySize=auto;html=1;" edge="1" parent="WIyWlLk6GJQsqaUBKTNV-1" target="XTSFsIL2t6BZDen2kyMJ-2">
          <mxGeometry relative="1" as="geometry">
            <mxPoint x="350" y="400" as="sourcePoint" />
          </mxGeometry>
        </mxCell>
        <mxCell id="XTSFsIL2t6BZDen2kyMJ-2" value="Display Numbers" style="whiteSpace=wrap;html=1;verticalAlign=top;strokeColor=#b85450;fillColor=#f8cecc;" vertex="1" parent="WIyWlLk6GJQsqaUBKTNV-1">
          <mxGeometry x="290" y="480" width="120" height="60" as="geometry" />
        </mxCell>
        <mxCell id="XTSFsIL2t6BZDen2kyMJ-10" value="USER" style="strokeWidth=2;html=1;shape=mxgraph.flowchart.start_2;whiteSpace=wrap;fillColor=#f8cecc;strokeColor=#b85450;" vertex="1" parent="WIyWlLk6GJQsqaUBKTNV-1">
          <mxGeometry x="70" y="250" width="120" height="100" as="geometry" />
        </mxCell>
        <mxCell id="XTSFsIL2t6BZDen2kyMJ-11" value="LCD &lt;br&gt;DISPLAY" style="strokeWidth=2;html=1;shape=mxgraph.flowchart.start_2;whiteSpace=wrap;fillColor=#f8cecc;strokeColor=#b85450;" vertex="1" parent="WIyWlLk6GJQsqaUBKTNV-1">
          <mxGeometry x="300" y="300" width="100" height="100" as="geometry" />
        </mxCell>
        <mxCell id="XTSFsIL2t6BZDen2kyMJ-12" value="" style="endArrow=classic;html=1;rounded=0;entryX=1.033;entryY=0.29;entryDx=0;entryDy=0;entryPerimeter=0;" edge="1" parent="WIyWlLk6GJQsqaUBKTNV-1" target="XTSFsIL2t6BZDen2kyMJ-10">
          <mxGeometry width="50" height="50" relative="1" as="geometry">
            <mxPoint x="350" y="300" as="sourcePoint" />
            <mxPoint x="440" y="390" as="targetPoint" />
            <Array as="points">
              <mxPoint x="350" y="279" />
              <mxPoint x="250" y="280" />
            </Array>
          </mxGeometry>
        </mxCell>
        <mxCell id="XTSFsIL2t6BZDen2kyMJ-13" value="" style="endArrow=classic;html=1;rounded=0;exitX=0.5;exitY=1;exitDx=0;exitDy=0;exitPerimeter=0;entryX=0.03;entryY=0.78;entryDx=0;entryDy=0;entryPerimeter=0;" edge="1" parent="WIyWlLk6GJQsqaUBKTNV-1" source="XTSFsIL2t6BZDen2kyMJ-10" target="XTSFsIL2t6BZDen2kyMJ-11">
          <mxGeometry width="50" height="50" relative="1" as="geometry">
            <mxPoint x="80" y="370" as="sourcePoint" />
            <mxPoint x="390" y="410" as="targetPoint" />
            <Array as="points">
              <mxPoint x="130" y="380" />
            </Array>
          </mxGeometry>
        </mxCell>
        <mxCell id="XTSFsIL2t6BZDen2kyMJ-14" value="OUTPUT" style="text;html=1;align=center;verticalAlign=middle;resizable=0;points=[];autosize=1;strokeColor=none;fillColor=none;" vertex="1" parent="WIyWlLk6GJQsqaUBKTNV-1">
          <mxGeometry x="260" y="260" width="60" height="20" as="geometry" />
        </mxCell>
        <mxCell id="XTSFsIL2t6BZDen2kyMJ-15" value="INPUT" style="text;html=1;align=center;verticalAlign=middle;resizable=0;points=[];autosize=1;strokeColor=none;fillColor=none;" vertex="1" parent="WIyWlLk6GJQsqaUBKTNV-1">
          <mxGeometry x="245" y="380" width="50" height="20" as="geometry" />
        </mxCell>
      </root>
    </mxGraphModel>
  </diagram>
</mxfile>
